<svg version="1.1" id="Ebene_1" xmlns="http://www.w3.org/2000/svg" x="0" y="0" viewBox="0 0 3685 3085" xml:space="preserve"><style>.st0{fill:#6d6d6d}.st2{fill:#1a0711}.st6{fill:#5f5a5c}.st10{fill:#262626}.st11{fill:#525252}.st12{fill:#fdfdfd}.st13{fill:#515151}.st20{fill:#272727}.st21{fill:#262627}.st23{fill:#505050}.st28{fill:#f6f6f6}.st36{fill:#1d0e16}.st38{fill:#5b595b}.st41{fill:#20171c}.st45{fill:#1f1319}.st51{fill:#1e1117}.st52{fill:#474546}.st57{fill:#5a585e}.st72{fill:#1e1319}.st76{fill:#494949}.st85{fill:#20141a}.st91{fill:#454244}.st96{fill:#453139}.st136{fill:#1e1218}.st138{fill:#20181c}.st141{fill:#21191d}</style><path class="st0" d="M758 2969zM3506 2562c-79-50-160-98-226-166l1 7c-3-20-40-16-55-27-5-2-11-3-16-6l-14-4v1c-1-72 0-145 2-217v-69c2-10 16-13 24-17 1-2 4-3 6-4l12-8c2-2 7-6 9-2 11 8 26 16 39 24 109 80 199 186 329 237-77-80-168-151-226-247-36-20-76-42-97-78 30-71 33-168-22-226-15-11-7-12 6-14 9-4 18-7 26-12 39-25 29-56 71-10l8 7 6 6v1l18 16v-1c66 70 122 156 208 200-63-83-140-158-184-254l-4-5-16-12-41-34c6-52 14-104 2-156-17-80-94-127-172-134-21-6-47 7-60-14l-20-15c-35-27-76-43-116-60-69-25-116-74-155-133-34-14-68-27-99-46v1c-14-8-28-16-40-26-8-4-14-15-21-14-9-19-19-44-25-66a79 79 0 01-14-61c-4-148-80-286-204-367-18-7-30-20-37-38-16-21-32-43-51-61v1l-12-11-2-2-2-4-2-4c-34-65-87-117-142-165 4-60-30-117-92-129-21-1-42 6-60-6-52-15-107-19-160-26-15-3-42 3-52-8-64-39-138 1-202 22-50 12-87 44-124 78-7 8-8 5-10-2-12-17-25-34-40-48l-2-2c-62-42-144-15-172 54-19-13-44-23-68-28l1-1c-5-5-18-4-23-2-68 43-157-75-232-85-15-4-14 20-42 16-98-12-193-51-294-46 109 35 219 73 309 146 65-4 119 34 176 54 58-3 113 20 163 46 1 36 2 70 9 105 5 27 9 54 17 80 2 8 9 16 0 23l-30 46-2 4c-3 6-5 13-14 14h1c-128-31-214-161-362-150-60 3-109-29-151-69-137-18-253-128-392-139 113 54 222 115 309 204 63 9 119 37 168 76 101 14 192 64 262 140 14 11 34 3 51 6 86 33 74 46 90 128v-1l2 15v-1l4 29v-1l2 13v-1l2 15v-1l2 15v-1c14 105 61 53-26 148l-2-5c-12-18-12-22-35-19-16-1-33-9-48-10-27-19-66-44-88-76-10-9-28 1-40-7-87-51-129-155-214-209-11 57-56 57-96 26-25-17-46-57-74-63-121 2-150-136-236-193-12-13-13 33-58 17-112-43-205-127-313-180 97 86 188 191 288 274 97 17 112 69 170 127 121 20 211 97 291 182 54 22 98 55 132 102 87 32 166 82 236 143l-13 8c-69 27-121 99-120 173-1 5-6 10-12 9-34-13-75 4-106-18-23-16-46-36-60-60-12-13-15-37-32-42-58-8-114-28-155-70a73 73 0 00-36-21c-64-17-110-59-143-116C285 897 178 731 8 656c88 85 184 170 253 273 54 38 119 71 141 138 69 56 154 97 210 169 15 42-42 30 6 62 28 19 27 16-4 28l-4 2-4 2-12 8-10 8-2 2c-5 7-9 2-14-1-65-27-135-4-196 22-7-15-17-31-22-49-2-12-17-12-24-20-128-82-182-237-312-318 40 77 110 154 141 240 9 21 20 37 37 50 30 24 81 78 34 110-14 9 28 43 34 52 16 11 34 26 52 32 1 288 24 575 46 863 7 135-4 272 18 406 34 170 122 215 288 216 81-20 38-41 94 18 95 79 231 2 240-116l4-31c0-18 0-18 18-17 85 7 152-70 159-150 32 107 146 158 239 87h-1l3-2h-1c10-7 34 18 49 20 50 16 105 3 145-30l2-2 2-2 2-2 2-2 2-2c23-31 24-34 62-42 36-12 71-23 106-36 6-3 14-9 19-2 2 4 2 11 6 13 21 0 17 20 26 31 18 28 43 52 74 65 16 3 19 23 32 33h-1l3 2h-1l3 2h-1c38 34 95 48 143 34 19-7 19-7 30 12 40 49 106 63 165 42 11-4 21-4 32-3-5 10 31 9 38 11 69 1 144-19 200 34 13 11 26 18 45 15 120 1 229 88 353 75-79-28-161-52-230-100v1c-18-12-36-24-52-39l-6-6c-11-14-30-9-46-10-26-3-52-11-76-22-18-8-35-17-52-27-16-12-35-5-54-7-21-1-42-8-63-12l-1-2c-7-3-1-7 0-10l6-24c1-12 0-16 11-12 42 2 87-10 117-42 13-10 20-36 36-36 10 73 10 124 83 168 65 38 151 16 197-42l26-50c4-9 3-22 12-27l5 5c2 1 5 2 6 4l2 2 14 12c24 17 140 129 160 94l4-2c18-2 35-3 52 4l26 10c5 2 10 4 15 4 83 36 167 74 257 86-78-43-163-82-232-140-83-61 11-13 13-159 4-47 1-96 9-143 15 14 35 23 55 30 21 5 20 9 31-12v1c57-9 127 39 159 85 8 14 15 20 31 22 74 7 138 49 204 81-47-51-111-90-170-129zM776 1313c1 0 1 0 0 0zm1547 1555h-2l2-1v1zm629-1417c-23 24-40 52-57 80-6-74-65-135-139-144-19 4-17-26-25-40l-21-51c-7-15-21-28-17-46 6-15 1-45 13-54 24 1 54 22 76 36 21 23 45 44 55 76 3 7 6 9 13 10 34 3 64 21 86 46 11 12 21 24 28 38h1c21 34 10 23-13 49zM1300 514z"/><path d="M431 1473l96-9 55 409 63-420 44-44 57 14 20 91 67 155 22-235 115-25s25 162 25 169 135-84 135-84l130-9 50 52c92-49 64-46 170-43l87 109 136-62h163l89-18 73 46 89-34s67 20 76 20 80-70 80-70l75 32 30 70 123-105 135 21 73 4 69 17 11 795 172-12 13-702 89-98 129-27 70 32-18 114-135 23c-34 106-24 79-6 185l84 3 5 107-101 57-18 663-57-5-42-132c-109 42-78 42-185-2l-59 203-53-14-29-295-69 138-84-62-65 134-57-31-64-320-36 468-46 27-36-55-32-70-58-62-22 119-51-23-48-41-41-9c-15-81-43-261-43-343l-52-11-24 57 53 36-9 94-215 101-141 93-62-87 29-146-52-92-27 238-62 89-46-43-14-167-38 21-117 16-53 183-52 15-51-208 12-168-39 107-51 464-89-21-93-146-41 124-67-9-109-42c-23-387-61-925-55-1314z" fill="#fff"/><path class="st2" d="M2324 2410c-6 106-10 212-19 318-2 29-11 58-42 71-83 31-94-61-113-119-3-6-25-24-28-10 5 89-108 103-137 25-4-9-8-12-17-13-90-15-72-128-82-195-68 74-168 96-261 126-18 5-32 16-44 32-59 84-127 31-156-46-27 33-40 83-84 95-26 7-53-4-67-26-33-47-19-107-22-161 4-21-34 18-90-3-19-7-28-5-36 15-18 47-21 98-30 148-10 69-110 83-133 12-21-80-2-165-11-247-8 129-17 258-30 387-3 47-22 106-77 103-19 0-34-10-47-25-29-33-62-65-85-103-6 57-45 96-101 74-71-6-115-16-144-94-35-106-18-220-27-329-5-195-26-389-37-583-8-124-11-248-12-372 0-33 21-56 53-64 44-12 102-20 126 28 8 16 12 32 13 50l7 100 9-100c0-57 25-115 90-117 45-3 105-1 110 56 3 38 9 76 8 113 0 4-1 9 3 11 8-106 1-206 142-189 49 2 55 53 63 32 12-20 17-49 43-54 9-2 16-8 23-13 2-1 2-6 2-9-18-62-8-76 34-123 3-5 9-8 14-10 25-6 43-25 67-33 5-2 8-8 11-13 13-29 25-60 50-81 47-45 98-99 94-169 0-16-22-3-28-33l-20-143c-5-16-18-25-8-44 27-53 50-108 91-153 4-5 5-9 3-15-29-76-41-156-35-237 3-23-4-57 23-66 12-4 23-2 31 7l38 52 43 52c5 5 7 5 13-1 32-35 66-70 104-101 7-7 16-11 27-10 2 0 5 0 7-2 37-23 79-30 120-42 16-5 29 1 37 15 3 5 5 5 10 6 62 5 124 6 184 20l6 2c14-2 25 4 33 16 1 2 6 2 8 2 24-1 58-17 73 10 7 11 5 23-2 34-5 6-13 12-12 17 31 32 70 62 102 94 32 30 57 66 73 107 2 4 6 9 10 12 32 23 58 52 73 90 1 4 6 8 10 10a362 362 0 01200 307c2 23-5 48 4 70 34 62 52 128 49 198-1 29-9 58-13 87-1 4 0 10 2 14 35 59 59 121 73 187 2 8 3 11 12 7 51-23 121 7 121 68v750c-1 7 2 7 8 5 24-8 48-16 72-22 7-3 16-2 24-2 9 1 10-3 10-10-3-134-2-267 0-401 5-118-14-252 73-347 65-75 199-116 275-37 12 14 18 31 19 49 4 64 1 172-92 144-26-8-50-4-74 3-9 2-12 6-12 15v97c0 8 2 10 10 8 19-5 38-5 57 2 24 9 40 27 45 52 15 66-9 145-83 161-9 5-29 0-29 15l-1 83c-4 183 2 366-13 549-16 81-121 56-137-15-6-18-10-38-15-57-1-6-3-7-10-7-60 6-91 32-136-25-14 53-11 112-32 163-19 48-73 66-113 38-21-15-30-37-30-63-2-53 2-108-1-161-8 8-12 19-19 27-31 39-87 26-111-12-13 68-79 166-146 82-41-66-18-153-29-226l-3 8 1 2zM1718 834c-3 0-5 3-7 5l19-11c7-4 23-5 26-12 0-5-1-10-3-14 0-2-5-2-8-2 2 6 7 11-1 15-9 6-18 11-26 19zm-542 858l-2-2c-6-8-9-20-19-25 2 11 12 20 17 29 9 14 19 30 19 47-2 19-22 30-41 23-6-2-8-1-8 6l1 26c0 2 3 5 5 5 42-1 77-7 103 34 4-33 0-67 1-100 0-3-3-7-6-7-27-3-52-15-70-36zm-14-314c1 4 5 6 7 9l-1-1c-19-32-24-71-20-108 0-3-2-7-4-7-2-1-8-1-9 1-2 7-6 14-5 20 4 31 15 60 32 86zm740-812l3-1h-1c-63 32-49 94-34 146l-3 4c-12-12-11 0-12 7l-4 18c-5-5-9-21-15-8-13 27-28 54-33 84 6-9 7-22 11-32 9-14 14-30 25-43 7 9 9 21 16 30l7-32c2-12 2-12 12-6 2 2 5 6 6-1 2-22 0-43-12-62-8-39-2-81 34-104zm-280 518h4c-5-18-7-37-8-56 15 37 35 71 68 94 8 4 6-2 6-5 0-23 6-45 18-63 6 15 5 34 12 48 6-8 7-19 12-27 15-27 37-48 60-68 2-2 4-6 4-9l15-106c14 20 14 47 19 70l4-4 20-48c5-15 1-31 7-46 9 20 11 42 19 62 36-53 49-120 51-184 14 14 24 32 36 48-4-45-22-89-48-125 1 69-11 137-31 203-2-30-10-58-21-87-14-12-21 66-23 75l-4-4c-3-9-3-20-9-27-4 12 0 27-5 39-6-8-7-19-14-26-20 45-27 97-42 144-4 15-12 24-26 29-19 7-38 5-56 5s-34-2-50-10c-8-3-11-10-13-18l-19-70c-11-49-29-98-53-142-4 8-5 17-7 26-10-13-17-27-24-41-3-6-5-7-8-1-2 4-5 4-6-1-6-27-13-54-1-81 11-27 10-58-7-82-8-9-11-9-18 1-24 36-32 78-37 119 8 1 22-13 24 1 3 29 2 58-5 87-13 28-23 61-10 90 6-23 14-51 41-58-5 35-3 70 7 104 8 14 15 29 26 42 3-18 2-36 16-50h4c10 56 29 111 72 150v2zm26-512l2 1c-21-25-42-53-47-87-2-9 2-19 1-28-1-15-7-28-18-38-4-4-7-10-12-12 3 21 10 41 6 63-1 12-2 27 2 38 11 31 36 51 66 63zm-628 948l-2-2-1 4 3-2zm742-772l2-3c17-9 37-13 29-37-6 10-7 21-21 24-5 3-12 11-13 17l3-1zm-598 696l-4 1 6 1 3-3-5 1zm588-878l-5 5 7-3v-2c25-14 57-50 55-79-2-24-1-46 4-69a70 70 0 00-20 64c0 32-21 60-39 84h-2zm446-40l-6-1c40 22 75 58 80 106 1 7 3 8 10 5l21-6c8-1 9-5 7-11-19-53-57-83-112-93zm-598 310c19 47 27 99 43 148 10 18 37 16 55 16l33-2c6-1 8-5 6-11-7-16-15 8-39-1-14 3-26 0-39-5-7-2-12-6-14-14-9-31-25-60-19-93 2-17-14-8-20-32-11-25-9-54-3-81-3-23-24-42-43-55l2-2c13 8 28 15 38 26 12 13 22 26 40 30l-2 2c-10-1-26-8-27 8-2 22-2 44 6 65 3 8 7 14 16 18 16 9 29 31 51 24 6-4 7-16 6-22-1-4-11-6-15-10-10-4-20-11-30-12-11-2-15-7-16-16 0-44-1-33 35-26 3 1 8-2 8-4 2-20 6-40-2-59l2-4c13 17 10 38 12 58 1 13 0 14 14 14 6-1 13 2 14-7s3-17 2-26c-2-17 5-32 14-45l2 2c-5 12-10 25-8 39l2 24c0 5 0 9 7 9 7-1 9-3 7-10-8-24 0-53 27-61 8-3 12-12 11-21-2-13-6-15-17-17-13-3-34-7-35-24 2-18 7-39 21-50-2 16-6 31-9 47 0 3 4 6 6 9 12-12 16-30 25-45l6-5 2 12 35-36c-9-3-19-4-29-5-17 0-34-5-52 1-10 3-22 2-33 3 45-9 47-92 40-128-11-48-19-97-37-143-24 77-59 161-29 242 5 13 12 24 26 27v2c-65-1-120-44-132-109-2-9-4-19-10-26-22-25-44-52-71-72-27-21-52-45-73-74 0 69 66 108 85 169 9 23 30 42 48 60l-3 2c-8-6-16-14-26-19 0 56 7 47-46 34v1c2 20 38 5 54 40 29 59-10 87-1 128l10-10c4 14 3 29 10 42 3-6 5-14 10-19 19 31 35 65 49 99zm164 66c1-3 3-7 0-10-5 15-15 28-21 43-1 3 3 8 5 12l6-6 10-39zm-128-6l-2-4c-5 4 1 13 2 18l10 34 4 3c2-5 9-7 5-14-7-12-15-24-19-37zm244 390c11-3 22-3 32-6-3-8-14-15 0-19l51-15c10-3 21 1 28-12 49-81 92-165 129-253 3-7 2-12-4-18-42-42-56-99-60-157 0-9-11-12-15-4-9 17-16 35-24 53-4 6 0 7 5 9-6 0-11 1-14 7-8 13-13 28-23 39-7-9-9-23-20-30-17 50-17 115-69 145 4-14 14-24-10-23-10 2-17 13-25 18-17 11-33 25-52 32-22 8-38 21-48 41-30 54-16 83-56 39v15l-8-3c-16-13-33-24-48-38l11 20-2 2c-56-41-95-88-113-156-3 13 4 27 2 40-55-30-61-92-66-148-16 18-10 55-16 78-27-35-34-78-20-120 6-16 10-32 14-47v-7c-95 74-43 316-14 417 7 32 34 16 49 37-3 5-1 7 4 8l66 21c18 0 62-35 73-51 4-5 6-3 9 2l16 26c18 20 34 46 61 55 51 10 105 1 157 3zm384 6c12 23 31 41 50 58 9 8 19 14 29 19 3 1 9-3 13-5-22-18-46-33-60-60l2-2c16 18 50 54 77 47 17-13 45-29 44-55-26-83-14-49-79-95 21 2 41 7 62 10 10 2 10 1 9-9-2-29-8-59-7-88 18-84 1-169-26-248 13-3 27-3 38-8-9-5-20-4-30-6-6 0-9-1-11-8-1-10-4-20-9-29s-13-16-21-23c-36-33-73-66-116-91-5-3-7-1-8 4l-10 33c-6-21-4-43-7-64-1-9-1-19-4-26-20-41-55-59-97-64-3 0-8 3-10 6-21 40-19 85-26 128l-16 59c-2 7 2 11 8 9 18-16 39-19 62-18 17 1 31-10 45-18l2 2c-28 29-29 21-64 30h-2c-10 5-20 9-28 17-4 3-3 12-3 19 24 0 46-13 69-18l39-16c5-2 11-5 16-4 36 12 95 25 118 56 10 24 17 50 25 75 3 9 0 17-6 24-31 39-72 66-119 82l13 5c12-1 24-8 36-12 31-16 91-56 90-96l2-8c15 52-68 102-106 122 23 10 49 12 69 29 9 9 22 13 29 23l-2 2c-26-16-49-35-81-39-12-1-23-6-35-9-15-4-15-4-16 11 3 86 5 175 52 249zm-822 1156l1 14 3-14-3-4-1 4zm206-1626l8 2c-5-4-7-9-9-14 9-5 18-1 27-1l38-2-67-10c-2-1-5 0-5 1-1 6-2 13-1 19 0 2 6 4 9 5zm-548 612l2-4 17 18c7 6 13-1 19-4 5-13-10-28-4-42 18 35 2 37 42 32 2 0 5 3 5 4-2 8 2 8 8 8h59c22 0 39 8 51 26 22 21 31-11 37-27 3-7 0-10-8-11-57-7-108-35-145-78-3 18 3 38 0 57l-5-2-28-27-9-16c-3-6-5-5-10-1-13 12-26 25-41 34-9 6-15 12-20 22-7 12-13 26-24 35-16 13-27 30-26 50 15-1 21-15 32-23 18-20 34-22 58-31-3-7-8-13-10-20zm464-1000l-22-66c21 12 41 24 60 40 18-38 24-81 34-122l24 28c5 9 6 20 13 27 9-22 15-46 26-67 11 21 15 45 26 66 1-2 4-4 4-6 5-19 18-34 32-46 6 28 11 57 21 85 1 5 3 6 6 1l12-16c15-17 31-36 53-44-3 16-15 30-17 47 30-26 52-74 93-82l33-8c-21-5-44-5-66-9l-58 8-4-2 36-21c-60-6-129-11-182 27l-2-2 22-33c-65 19-98 82-139 131 0-18 8-35 13-52-15 11-25 27-37 41-4 14-13 26-20 38-1 1 1 4 3 6 13 11 24 25 37 35l-1-4zm240 970l28 5v1h-28c-5 0-13-2-15 4-1 43 40 52 75 55l-7 3c-22-5-51-1-67-21-10-15-12-35-26-48-24-16-27-33-36-59-1-3-6-7-9-8l-99-6c-20 0-19-1-12 18 7 17 15 33 35 38l40 8 49-5c-17 9-36 14-55 17-1 1-4 4-3 5 6 14 11 29 29 32l26 5 33-4 2 2c-22 14-53 8-31 33 10 14 22 26 41 27 19-1 39-3 58-2 14 1 28 6 41 9 7 2 24-3 26-9 4-9-1-32-8-40a79 79 0 01-24-47c0-3-2-6-4-7-30-16-10-44-27-48l-76-18c-11-3-12-3-10 9 4 35 20 47 54 51zm824 62a530 530 0 00-58-143c0 10-4 22-1 31 11 28 20 56 25 86 1 5 3 9 8 12 10 5 19 12 27 19l-1-5zM1982 320l3-7c-19 18-33 42-54 57-29 22-53 48-79 73-11 10-20 23-18 40 30-25 55-55 83-81 27-23 53-48 65-82zm-520 178c9 7 17 15 27 20-7-17-19-32-30-48-8-10-17-21-19-35-1-23-14-41-26-59 3 47 18 93 34 138 5 16 11 31 31 34-3-17-12-33-17-50zm180-160c-6 32-21 60-31 90-3 18 1 36 1 53 4 35 22 67 50 88-1-10-6-18-8-28-11-48-2-96 0-144 2-24 5-50-7-72l-5 13zm88 984l49 11c26 6 26 6 31-21 1-6 0-8-7-8l-58-2c-45 1-77-39-102-72-2-2-7-5-8-4l-59 42-66-15c7 18 40 61 60 61 54 0 107 1 160 8zm594 134c37 10 55 35 59 72 12-9 22-23 32-34 3-3 4-9 3-12-13-46-15-93-24-138-37 30-70 65-99 103-4 6-2 7 4 7l25 2zm-890-726c3-39 13-75 24-112l18-34c-5-1-11-1-15-4l-12-24c-2-5-4-6-8-2-21 21-37 46-53 70v5l20-7 6 2c-26 29-54 62-53 104 6-8 11-18 20-21-11 48-2 94 18 137 21-38 21-61 57-92 6-6 7-12 5-19-3-17-20 14-28 15-2-6 0-12 1-18zm698-294v-2c20 16 28 41 30 66 1 7 3 9 10 10 19 2 37 7 55 10-16-51-54-104-104-125-30-11-57-27-78-50 13-2 25 2 38 3h-1c-2-10-75-49-78-35-6 38 2 48 32 71 5 2 5 5 2 10-9 12-11 29-5 43 7-16 18-28 36-30 18-4 49 61 60 76l3-6c0-13 3-27 0-41zm-8 794c20 88 78 156 146 213h7l55-59-1-5c-103-62-124-184-133-293-23 37-44 77-66 116-4 8-12 17-8 28zm408 48c6-2 12 8 17-4 33-95 23-189-29-274-22 33-43 67-66 99-8 12-10 23-4 35 4 11 14 20 17 31l10 67c3 19-21 14-32 21 7 2 34 13 38 6 5-10 9-19 7-30l-8-68c-1-6-4-11-9-15-6-4-9-10-13-16l2-4c6 6 12 13 19 16 6 3 8 6 9 11l12 66c5 20-2 37-12 53-3 7-9 4-14 3l50 31c17 12 5 105-3 125 24-27 28-67 32-101 3-40 9-30-29-51l6-1zm-1158-84l-24 32c-5 7-16 17-16 25 4 0 7-2 9-5 13-18 83-75 78-90-13-53-21-107-31-160-27 49-66 90-106 129-17 31-24 72-59 89-13 7-26 13-38 21-9 6-18 13-29 14-23 8 0 14 10 19 12 13 19 28 20 45l4 4c8-1 16-11 16-19 1-6-1-13 2-18 4 36 16 27 44 22l2 2c-21 22-48 3-40 19s20 26 36 34c39 16 67-60 78-88 3-9 3-17-4-25 13-19 31-34 46-52l2 2zm730-374l-25 8c-7 1-8 5-7 11 13 73 51 128 116 164 3 2 7 3 10 2 53-9 98-39 131-81 9-9-10-55-13-69-4-13-8-26-23-33-30-15-62-26-95-35-3-1-7-1-11 1l-83 32zM452 1655c13 263 35 495 48 752 8 108-6 219 18 325 10 36 35 87 79 69 14-9 22-3 33 6 14 10 18 9 20-9 23-181 13-365 41-546 1-7 2-18 12-18 9 1 10 12 11 19 3 26 7 52 8 79 10 132-2 268 32 397 11 54 57 89 91 129 6 8 9-5 11-9 27-190 31-383 46-575 7-275 51-549 55-824 0-8-3-13-10-13-12-1-23-2-34-1-20 1-31 12-33 31l-24 303c-13 210-21 420-33 629-1 20-5 40-8 59-1 4-6 7-8 10-4-5-11-10-10-17-6-60-13-120-16-181-13-234-20-469-31-704-2-37-6-75-10-112 0-3-3-7-5-7-27-2-69-9-72 29-31 316-43 633-58 949-1 21-7 41-12 62-5-4-12-23-12-30-18-308-34-617-55-925l-6-46c-2-7-7-12-15-11l-44 9c-6 1-9 3-9 10v161zm1449 95h-2c17 283 31 568 60 850 8 49 59-5 77 60 4 12 7 23 22 26l4-10c7-99 16-197 27-296 1-17 7-34 12-51 0-2 3-4 4-6 2 2 5 4 5 7 3 13 7 26 8 40 8 75 9 152 25 227 1 9 7 15 17 14 16-1 27 7 33 21 15 35 29 71 39 108 8 15 13-15 14-21 19-354 45-707 73-1061 3-42 3-84 3-126 1-12-6-18-18-18-91-8-77 243-81 305-2 128-2 258-29 384l-5 8c-38-206-27-419-38-628 0-12-2-18-15-18-40-3-58 12-64 53l-8 115c-11 166-18 333-28 499-2 21-9 41-14 61 0 2-3 5-5 7-25-44-23-99-26-149-4-120-2-241-10-362l-16-221c-1-9-5-14-14-12-20 5-52 8-50 36v158zm-588 355v494c0 11 3 20 8 30 4 7 7 8 11 1l46-75c4-8 5-18 5-27l1-364c2-8 16-15 21-4 4 10 9 18 12 28 29 86 63 170 88 257 1 68-58 92-5 167 14 20 17 21 30 1 65-94 230-71 307-163 17-17 35-69-3-69-46-2-89 11-131 28l-50 19c-11 4-20 1-27-6-58-56-219-337-186-409 43-29 89-62 88-119-1-112 18-235-28-340-19-37-53-43-91-36-64 10-96 47-96 111v476zm1071 12h2c-2 142 2 285 6 427 1 16 7 31 12 45 2 7 7 10 12 1 20-27 25-59 32-91 11-53 83-29 101 7 11 17 17 17 24-1 21-60 54-120 60-184 1-244 3-487-5-730-6-28-22-53-40-76-12-16-34-7-52-9-130 7-151 164-148 267l-4 344zm-1373 35h1c4 166-7 333 5 498 1 6 2 16 11 16 8-1 9-10 10-17 14-81 18-241 142-203 28 8 71-4 75-37l1-113c0-7-4-12-10-12-13 0-27 0-39 4-35 12-68 28-105 33-16 3-20-2-20-18v-298c0-22 10-35 28-43l42-16 34-10c8-2 13-7 12-17-1-17 4-35 0-51-1-4-6-8-8-8-13 0-26 0-39 2-12-1-57 13-62 4-3-7-6-14-6-22v-169c1-82 105-78 165-81 4 0 8 1 8-6v-69c-1-9-6-14-15-13-68-1-146-7-184 63-24 39-37 81-38 127l-8 456zm596-186v336c0 8 4 16 7 24 8 11 27-4 36-8 30-22 67-23 103-28 95-8 116-104 97-181 0-2-5-3-7-3-54 19-98 61-156 68-12 2-16-3-16-16v-177c-3-62 53-73 102-81 17-4 23-11 24-27l1-46c0-10-6-17-16-16-29 3-57 12-86 19-14 3-23-3-25-23-11-138 42-163 170-145 10 1 15-3 15-12v-67c0-9-5-15-13-17-44-3-89 4-134 7-27 2-55 8-80 21-16 8-23 20-23 38l1 334zm1085 158c1 190-2 380 1 570 3 13 14 12 22 5 4-3 6-8 7-13 13-54 19-110 28-164 3-37 73-41 94-19 27 27 27 40 50-1 8-12 18 9 25 14 23 28 12-142 15-154 1-32-3-36-33-28-41 13-80 30-122 37-7 1-14-2-16-9-18-271-1-547-7-820-2-11-7-16-17-16-27-2-47 15-47 44v554zm295-70h3c1 163-4 328 18 490 4 27 12 54 19 81 2 6 7 13 12 18 4 4 8 4 8-3 13-208 8-416 13-624 0-28 14-49 41-58 27-8 65-10 70-43 3-17 2-35 2-53 0-8-6-13-14-12-31-2-103 50-99-7l-1-165c0-24 10-42 31-52 41-19 89-32 132-13 8 3 12 0 12-8 0-37 22-99-31-107-112-22-207 82-206 188-6 123-7 245-10 368zm-1734 36c-1-44 1-88-2-132-22 34-62 41-99 51-8 2-10 6-10 14v212c0 13 0 13 12 8 132-58 93 47 99-153zm438-577c-6-9-10-19-17-22-22-10-35-28-46-48-2-3-5-6-9-8-21-10-40-22-50-44-5-11-8-23-23-23-2 0-4-2-5-3-13-10-26-19-36-30-8-8-15-9-25-5-21 8-15 18-16 38-2 37-16 61-42 87 70-6 124 37 145 102 2 5 3 7 8 3 39-31 71-34 116-47zm783-493c0 12-2 24 1 36 19-21 32-47 37-74 23-138-51-276-177-335-26-8-58-3-81 12 157 73 224 190 220 361zm-742 1013l-1 52c0 9 2 10 10 6 33-19 65-41 104-45 7-1 10-2 9-10-4-38-2-78-9-116-24 36-64 39-104 48-7 2-10 6-10 13l1 52zm397-530c49-1 63 37 69 22l24-38c3-5 4-10-1-14l-71-73c-4-4-6-3-8 1-5 7-12 15-16 23-16 29-35 57-49 87 17-1 34-6 52-8zm-125 11c14-18 28-37 39-57 25-47 55-89 88-130 2-3 5-8 4-10-3-11-8-21-13-32-4-2-7 1-8 5-42 71-89 140-127 212 5 5 11 8 17 12zm-605-202c-6-9-26-9-37-12-26-5-17 43-50 70-2 21 26 33 42 40 33 13 46-73 45-98zm148 780c-1-28 1-56-1-84-16 10-29 24-44 35-18 8 34 117 43 133 4-27 0-56 2-84zm194-1721h1c1 35 8 71 12 106 3 18 2 36 7 53 18-30 26-70 23-105-4-16-11-32-19-47-3 21 0 43-2 64-7-26-13-52-9-78 1-12 2-27-4-38-8 13-6 30-9 45zm101 1380c-2-9 4-24-6-29-26-3-51-9-77-4-18 3-25 9-27 27-1 13-1 13 11 10 35-9 72-5 99 21v-25zm-545-353c-12-10-30-14-43-23-19-13-40-23-51-45-4-7-16-3-10 5 17 39 51 65 90 79 17 8 11-2 14-16zm805-179c-3-13-5-25-9-37-13 16-20 37-34 53-7 8-8 13-3 22 4 7 7 6 11 2 12-13 26-25 35-40zm-664-7l-5-13c-8 6-17 11-23 19l-49 65c-2 2-1 7-2 10 5-2 11-2 15-8l64-73zm545-836l1-3c-6 6-10 13-11 20-7 53-28 101-43 150 28-25 47-125 53-167zm591 1069c1-4 12 7 9-5-7-22-12-45-22-65-9 14-14 30-5 46 6 10 0 29 18 24zm-757-805c0-3-1-10-4-14-14 13-24 29-37 42-12 12 43 13 41-28zm-147 253l-1-3-4 3 6 14 3-2c5-11 7-3 10 1 7 12 10 5 15-3 5 8 5 15 13 5 4-4 6-15 11-4 4 10 8-5 9-9 1-2-1-4-2-4-20-2-40-2-60 2zm54-14c7-2 16-1 21-6 9-7 16-17 23-26h-3c-13 7-25 15-39 18l-5-12-4-4c-20 6-11 30 7 30zm-55 55c11-4 5 10 8 16 13-11 16-14 6-29-2-2-4-8-7-7-8 10-9-1-12-4l-7-11-3 15c-1 9 8 20 15 20zm207 1386l-3-24c-10 6-19 15-28 24 7 3 15 2 22 4 8 3 10 1 9-4zm126-2029c1 16 2 16 15 8 5-4 12-8 15-14-7-2-14 0-21-2-8-2-11 0-9 8zm-331 680c-1-12 1-19-3-27-6 1-12 15-14 21-2 9 13 12 17 6zm56 0c4 5 19 3 17-6-2-5-8-20-14-21-3 9-2 15-3 27zm-48 3c3 8 7 8 14 6 6-5-1-23-4-29-6 6-6 14-10 23zm41 3l-9-24h-4l-5 21c0 3 5 6 9 7 2 1 5-2 9-4zm-495 676l-9 2c2 2 2 5 4 6 8 4 22 15 30 12-8-6-17-15-25-20zm679-668l-1-7c-3 6-18 15-12 20 10 5 13 2 13-13zm-592 509h3c3-6 8-12-1-14-9 2-5 9-2 14zm389-548l3-5-9-3c-2 5 2 9 3 13l3-5z"/><path d="M950 2444l2-13 2 13v186l-2-17v-139-12-6l-2-12z" fill="#22121b"/><path d="M2324 2410v-3l2-8 2 8v11l-4-8z" fill="#585558"/><path d="M952 2462v12h-2v-12h2z" fill="#625f61"/><path class="st6" d="M808 1546v-12l2 12h-2z"/><path d="M712 2798l1-4 3 6-4-2z" fill="#545456"/><path d="M2500 2548l1-4 3 4h-4z" fill="#424044"/><path d="M592 1582v10h-2v-10h2z" fill="#5c5759"/><path class="st6" d="M812 1546v8l-2-8h2z"/><path class="st10" d="M1662 1228l-16-26c-3-5-5-7-9-2-17 22-41 36-64 50-2 2-6 2-8 1l-67-21c-4-1-7-3-4-8l60 6c10 1 17-2 22-11 23-40 36-82 36-127l46 38 6 4v1l1-1h-1l-4-6-6-12 2-2 41 32c2 2 5 2 8 3v-9-6l4 4 15 15c7 5 10 4 14-4 7-19 14-37 23-54 10-20 26-33 48-41 19-7 35-21 52-32l16-14c3-2 6-4 9-4 18 0 18 3 12 17l-2 6 5-3c23-15 35-38 43-62s12-48 18-72l4-8 5 5 11 21 3 5 4-5 20-35c1-2 2-5 4-6l9-1-7-3 2-6c8-18 15-36 24-53 1-3 5-5 7-5 5 1 8 3 8 9 3 20 4 40 8 59 9 38 26 71 53 98 5 6 6 11 3 18-20 44-38 88-60 130-21 42-46 82-69 123-7 13-18 9-27 12l-52 15c-8 3-9 7-3 13l3 6-7 2-15 2-10-2h-8l-8-2a630 630 0 01-128-33c-26-21-45-47-62-75l-11-16c-1 7-3 13-3 20l2 52zm289-81l-1-1v1l1 2-1-3-2-8v-4l-2-4-4-55 3-12 32-51 7-10c15-11 31-19 50-22l47-3-5-3c-23-4-46-4-68 4-14 5-29 10-37 23-11 16-20 32-29 48-6 10-12 20-10 32l12 55 2 2v2l5 7zm-7 33l6 5-4-6-2-1c-20-29-25-62-28-96v-6l-4 4c-8 15-17 29-24 44-5 10-12 17-22 22-35 17-73 22-112 22l-9 1 9 1c32 1 63 0 94-10 20-7 40-14 49-35l7-13 4-5 2 6c6 25 13 50 34 67zM2296 1304c13 23 32 40 54 54l6 6c-4 2-10 6-13 5-10-5-20-11-29-19-13-11-24-24-37-36l-1-4-6-12-4-8v-2l-2-2-8-23c-19-56-25-115-28-174v-57c12 3 23 8 36 9 23 4 43 15 63 28l17 11 24 20 13 12-10-13-1-1-18-16-2-6-4-4-30-39c-8-10-17-15-30-13h-24c19-13 38-25 55-40 18-14 31-32 39-54 2-6-1-14-2-22l-2-10c-4-11-1-17 9-20l17-8c15 40 25 81 29 123 5 41 6 82-4 123a3175 3175 0 007 89c2 9 1 10-8 8l-59-9-3-1 2 3c16 9 31 19 47 27 7 5 12 10 14 18l16 48c1 3 0 8-2 12-9 20-26 31-43 42-3 3-12 2-17-1-24-10-43-26-59-46l-10-14-9-10h1v-1l-1-1v2l7 12 10 14zm108-32c-3-21-16-33-34-41-6-3-12-7-19-9l-54-20-48-12-4-2 2 4c11 12 26 18 41 22 23 7 47 13 70 21 20 6 39 15 44 39l7 10-5-12z"/><path class="st11" d="M1612 1090c0 46-13 88-36 127-5 9-12 12-22 11l-60-6-6-7c-6-3-12-6-19-7-14-2-20-9-23-23-17-57-29-115-36-174-2-16-5-31-5-47-1-16 0-32 1-48l6-65c6-30 19-57 41-79l6-4v7l-13 47c-14 42-7 80 16 117l3 3 1-4 6-56c1-5 4-10 6-14l3-4 1 5c3 22 4 44 9 66 7 31 25 57 52 75l4 2 1-5-2-13 2-12c10 32 25 62 46 88l18 20z"/><path class="st10" d="M2166 748l-13 8c-10 6-20 11-32 10-23-1-44 2-62 18-1 1-6 1-8-1v-8l16-59c3-13 4-27 5-40 1-31 9-60 21-88 2-3 7-6 10-6 42 6 77 24 97 64 3 8 3 17 4 26l4 57 3 7 2-7 8-26c1-5 3-7 8-3 17 10 34 20 49 32 23 18 45 39 67 58 8 7 16 15 21 23 5 9 8 19 9 29 2 7 5 8 11 8l26 4 4 2-4 2-34 6-26 12c-3 1-6 6-5 9l5 27c2 19-11 31-21 44-18 23-43 39-69 52l-16-6c34-16 62-40 86-69 7-7 9-15 6-24-8-25-15-51-25-75-3-8-13-14-21-19-30-17-63-27-96-36-5-2-12 1-17 3l-39 16h-12l-13 2c-10 1-13-2-12-12l1-8c5-1 10-4 15-4 22 1 36-12 49-26l14-13 1-3-2 1-15 13zm108 40h-1 1l14 10c24 11 44 26 47 55l2 5 6 4c1-2 4-5 3-7l-9-22c-4-13-12-20-23-25l-24-12-16-8z"/><path class="st11" d="M1598 830l-43-88-4-5-5 6v2l-5 11-5-12-4-26-1-4-3 3-7 7c-1-3-3-8-2-12l7-34c10-28 9-55-4-81-8-17-23-26-41-29-8-1-12-5-13-12l35 9c6 2 10-1 11-7v-32-5l4 2 22 17 8 12v4l2 4 4 4-2-6-2-4-2-4-6-12c-8-9-18-17-26-27s-17-21-21-33c-9-26-23-49-42-70-22-25-36-55-43-87v-11l6 8 7 19c12 29 27 55 52 75 23 17 34 40 41 67 3 12 11 24 20 32 16 14 26 32 32 52 4 14 10 26 22 34l11 7 1-11 2-6 4 4 16 36c2 4 3 5 6 2 9-6 10-5 12 5v12c-1 7 3 11 9 13l9 3c-12 11-22 11-33-1l-7-9c-17-24-36-45-62-61l-10-5-1-1 1 1 8 8 11 11c6 5 6 10 5 17-2 10 0 21 0 32l1 6-5-2-4-1v5c4 14 14 21 27 22 12 1 15 6 14 17-1 1 0 3 1 5l3-3c9-11 18-19 34-20 13-1 26-6 29-21 15 17 31 34 26 60l-24-24-3-3 1 3 2 10c2 13 11 22 19 31 3 3 5 7 5 10v47c-14 0-13 0-14-14-1-20 1-41-12-58l-10-14-6-6-3-2 3 4 4 4 2 2 8 16c8 19 4 39 2 59 0 2-5 5-7 4-8-1-17-3-24-6-6-2-10 0-10 5-1 9-3 18-2 27 1 8 6 14 17 16 10 1 19 8 29 12l4 3c4 2 11 4 12 7 1 5-2 12-3 18-1 2-2 4-4 4-6 3-22-1-28-6-7-6-14-13-23-18-8-4-13-10-16-18-8-21-8-43-6-66 1-9 6-11 13-9l14 2 6 2 6 2 2 1 1-1-3-1-4-3-6-3c-17-3-28-16-40-29-10-11-25-18-38-27l-6-2-4-1 4 3 4 2c18 12 32 27 41 47 2 3 3 6 2 9-6 22-6 44-2 66l-3 3zm56-86c-3-4-6-11-10-12-11-4-19-11-23-22l-2-2-1 2c-2 9 5 24 12 28 8 3 15 8 22 12l3 4 1-4-2-6z"/><path class="st10" d="M2104 820l83-32c4-2 8-2 11-1 33 9 65 20 95 35 14 7 19 20 23 33 6 19 11 39 15 59 1 3 0 8-3 10-23 31-53 54-88 70l-10-7c-26-13-48-33-67-56-24-30-40-64-51-101l-8-10z"/><path class="st11" d="M1504 940l-8-38c-2-33 4-65 16-96l1-6-5 2c-32 22-49 52-52 90h-2c-8-29-2-57 10-84l2-4 8-19c11-37 12-76 12-114l-2-8-6 5-26 38-2-8c5-36 14-70 34-101 7-10 11-10 19-1l3 6-7 11-5 10 11-3 9-2c4 20 4 40-4 60-13 27-6 54 1 81 1 5 3 5 5 1 4-6 6-5 8 1l14 27-2 10-10 34-2 5 1 7 3-6 20-36v-2l12-14 13 24-14 17c-13 15-23 30-23 51l1 8 5-6c12-16 26-29 48-28l6 20-4 10c-17 28-19 58-14 90l1 4 2-5 17-42c2-4 7-7 10-11l19 70c2 8 6 14 13 18l3 29c2 11 7 22 11 33l2 2 1-3 5-53 28 2-2 9c-9 30-9 60-2 91v6c-30-22-50-51-64-86l-4-8-14-66-1-8-3 6-4 29c-1 30 7 57 20 83l-2 2c-23-24-39-53-50-84-6-19-9-39-14-58l10-44 3-5 1-6-4 4-2 3c-21 29-35 61-28 98l-10-14c-6-22-6-44-6-66l2-10-1-4-1 3-2 5-2 10-6 34z"/><path class="st10" d="M1326 1244c7 8 7 16 4 25-11 30-23 59-47 81-9 9-18 13-31 7-16-8-29-18-36-34-2-5-3-8 5-7 13 1 25-2 35-12l5-4 6-8-7 5-6 5c-9 2-18 5-28 5-9 0-13-7-14-16l-2-11-3-12-2-2-1 2 4 16v14c0 8-8 18-16 18-1 1-4-2-4-3-1-18-8-33-20-45l34-22c3-2 7-4 10-4 18 1 32-9 46-18 12-7 22-16 23-32l1-6c7-17 12-35 29-45 34-18 60-43 80-75 4-7 5-15 7-22l10 52c4 20 9 39 12 59 1 5 0 11-3 14l-74 77-5 4h-4v-4l16-21 24-31 8-12 2-2 5-7-6 5-1 2v2l-10 10-44 48-20-16-1-1 1 1 18 20zM1698 722c4-26-11-43-26-60 0-19-6-37-18-52l-6-6h-1 1l4 8 4 13c3 12 9 24 4 37l-10-3c-6-2-9-5-8-12v-12c-2-11-4-12-12-5-4 2-4 2-6-3l-16-36-5-3-1 5-1 11-11-7c-13-8-19-19-23-34-5-20-15-38-32-52-8-8-16-20-19-31-7-27-19-51-41-68-25-19-41-46-52-75l-7-19c9 10 17 22 27 31 12 12 26 23 40 34l16 13 55 59c5 7 8 18 10 27 11 57 53 98 110 106l22 2c11-1 22 0 33-3 17-5 34 0 52 0l24 3 5 1-3 3-28 30-5 4v-5l-1-7c-3 1-6 3-7 5l-19 38c-1 3-4 5-6 7-2-3-5-6-5-9l8-41 1-6-6 4c-9 14-15 29-15 45 0 5 3 12 7 15 8 5 18 8 27 10 12 2 15 4 17 16 2 9-2 19-11 22-19 6-28 20-29 39-1 7 1 15 3 22s-1 9-7 9c-7 1-7-3-7-8l-2-24c-2-14 3-27 8-40l6-8 6-9-8 7-6 8c-10 14-16 28-15 46 1 8 0 17-1 25-2 9-9 7-14 7v-46l-5-10c-9-9-17-18-19-32 5 7 9 14 15 20s14 6 19-2c7-8 11-17 17-26v-4l-4 3-23 23z"/><path class="st0" d="M1253 2090v120c0 10-1 13-12 13-30-3-57 7-83 18l-4 2c-12 5-12 5-12-8v-212c0-8 2-12 10-14l52-15c18-6 33-17 44-33l3-3 1 5 1 9v118zM1691 1513l-10 3c-20 5-41 9-60 17-16 6-31 17-46 27-5 4-6 2-8-3-7-21-17-40-32-58-26-30-59-45-99-43l-14-1 10-11c23-21 29-48 32-76v-12c0-18 0-18 17-26 10-4 16-3 24 5 11 11 24 20 36 30 1 1 3 3 5 3 15 0 19 12 23 23 11 22 29 34 50 44 4 2 8 5 9 8 11 20 24 38 46 48 7 3 11 13 17 22z"/><path class="st11" d="M2206 1158c11 74 34 143 91 195 10 10 23 17 34 26l1 5-55 59c-1 1-6 1-7-1-23-21-48-42-69-66-39-41-62-92-77-146 26-14 48-32 67-56l15-16z"/><path class="st10" d="M1686 1122v-6c-7-31-8-61 2-91l2-9c19-1 37 1 56-5 14-6 22-14 26-29l36-132 3-8 4-5 3 5 8 18 2 4 2-4 2-31 1-5c1 2 3 3 3 5l6 23v13l2 1 2-10 8-53c2-8 6-16 10-24l5 2 17 53 4 34 14-51c12-48 18-96 16-145l1-8 5 6c18 32 35 65 41 102l2 18-10-14-22-31-4-3-1 5a335 335 0 01-48 177l-2 2-2-4-14-52-3-6-2 7c-2 13-2 26-5 38-5 17-13 33-20 49l-4 4-2-6c-1-21-6-41-14-60l-3-4-1 5-14 101c0 3-2 6-4 8-23 20-45 41-59 68-5 8-8 17-11 25l-2 3-2-3-8-38-2-8-5 7c-7 18-14 36-13 56 0 4 2 10-6 6zM1762 1444l-33 4-9-2h16c-2-1-3-3-5-3-17-5-26-17-29-34l-2-7 27-10 5-3-5 1-43 4-10-2h12l4-1-3-2-35-15c-3-2-8-4-10-7l-16-37 93 7c4 0 8 4 9 8l10 29c5 13 16 21 27 30 4 3 7 8 9 12 6 12 10 24 17 35 4 6 12 12 19 14 16 4 32 5 47 7l7-3-6-1-16-1c-1-3-2-7-4-8a68 68 0 01-34-49h28v-1l-20-3-6-4-10-7c-15-7-23-19-25-36l-1-12 67 16c6 1 8 5 8 11-1 16 4 28 19 36 2 1 4 5 4 7 2 19 11 34 24 47 7 8 12 31 8 40-2 6-19 11-26 10-13-4-27-8-41-9-19-1-39 1-59 1l-17-50-5-4 12-6 7-4h-1 3-2l-9 2z"/><path class="st0" d="M1732 2033l-1-52c0-7 3-11 11-13l51-11c20-5 36-16 49-33l4-4 2 6 6 110c1 8-2 9-9 10-14 2-29 5-42 11-21 10-42 22-62 34-7 4-10 3-10-6l1-52z"/><path class="st11" d="M1426 784l-24 57-3 3-2-3c-15-41-29-82-16-127v-7l-6 3-11 12-4 5v-6c4-28 17-52 34-74l20-23 3-3-9 1-17 6-4 1 1-5 32-47 21-23c3-4 6-3 8 2l7 14-20 25-2 4 4-1 34-6-14 26c-7 7-14 13-20 21-23 30-34 65-34 103l1 3 2-2 7-21 26-40-6 48c-2 3-5 7-5 11l-3 43zM1636 286c19-21 42-36 68-46l2 2-20 30-3 6 5-4c26-19 56-27 87-30 29-2 58 0 87 0l8 2-7 5-29 17-5 5 7-1 2-2 58-8-6 5c-17 8-34 15-50 24-26 15-47 35-66 57l-6-24 4-15 19-35 2-6-7 1-49 21-26 14-9-27-3-3-3 4-19 54-3 4-4 2-10-24v-3l1-15-15 2-10-12zM1398 1044c-2 7-3 16-7 22-20 32-46 58-80 76-17 9-22 27-29 44l-1 7c-1 15-11 24-23 32-14 8-28 18-46 17-3 0-7 2-10 4l-34 22c-6-3-13-5-19-9l-1-5c3-2 6-5 10-5 11-1 19-8 28-14 12-8 26-14 39-21 7-4 14-9 19-14 6-6 10-13 14-20l26-55a470 470 0 00103-125l3-4 2 6 6 42z"/><path class="st0" d="M2129 1503l-46 8h-6l1-3 48-84 16-23c3-4 4-5 8-1l71 73c5 5 4 9 1 14l-24 38c-2 5-4 5-8 2a86 86 0 00-61-24z"/><path class="st11" d="M2104 820l8 10c11 37 27 71 51 101 19 23 41 43 67 56l10 7-42 11c-3 1-8 0-11-2-64-36-102-91-115-164-1-6 0-10 7-11l25-8z"/><path class="st10" d="M2324 1410l64-63 6-3 2 6 10 76c3 19 8 37 12 55 1 4 0 9-3 12l-28 33-4 2-1-4c-4-36-23-58-58-68 1-2 3-3 3-5l-1-20-2-21zM1150 1384l28 27 5 2 1-6-2-46 1-5 5 3c14 19 32 34 52 45 27 16 57 25 87 30 9 1 11 4 9 11-4 10-7 19-12 28-6 8-19 7-25-1a58 58 0 00-52-26h-59c-5 0-9 0-7-8 0-1-3-4-5-4l-20 2c-3 0-8 0-9-2l-11-28 2-12 12-10zM1576 1268l59-42c2-1 6 2 8 4 16 22 34 41 55 58 15 11 31 13 47 14l58 2c7 0 8 2 7 8-5 27-5 27-32 21l-38-9-8-4-8-2c-35-11-71-20-108-22-19-1-36-2-40-26v-2z"/><path class="st11" d="M1694 588c-14-4-20-14-25-27-15-40-14-82-4-123 8-37 20-75 30-112l4-7 3 6 10 35 2 10v6l2 32v16l-2 34v8l-2 16v6l-4 12-2-4v-2l-2-6v-2l-2-8v-4l-2-14v-10l-2-26v-18-14l-1-12-1 12-2 20v4l-2 14v6l-2 16v20l2 24v6l2 14v16l-2 8-2-2-2-4v-2l-2-4-2-6v-2l-3-6-1 6 2 8v2l2 8v4l2 8v2l2 6v4l2 6v2l2 6v2a166 166 0 002 6v4z"/><path class="st0" d="M1186 1702c17 15 37 24 60 26 3 0 6 4 6 6v96c1 2 0 3-1 4l-3-2a67 67 0 00-64-32l-36 1c-2 0-5-4-5-5l-1-26c0-7 2-8 8-6 19 7 39-4 41-24 1-8-4-17-7-25l-8-15-2-2-2-4 2-4 2 2 2 2 8 8z"/><path class="st11" d="M1662 1228l-2-52c0-7 2-13 3-20l11 16c17 28 36 54 62 75l10 5c39 13 78 23 118 28l8 2 4 4-110 2c-15 0-29-1-43-5-11-3-21-11-29-19-12-11-21-24-32-36z"/><path class="st10" d="M1399 1312c-1 35-6 65-24 91-6 9-12 11-21 7-16-7-32-14-41-30-1-3-2-8-1-10 17-15 25-35 31-56 3-11 8-15 19-14l31 7c3 1 6 5 6 5zM1692 578v-2l-2-6v-2l-2-6v-4l-2-6v-2l-2-8v-4a237 237 0 00-2-10v-6h2l2 6 2 4v2l2 4 2 4v2l2 4 2 4v2l3 3-1-7v-4l-2-8v-6l-2-12v-4l-2-14v-6l-2-24v-20l2-16v-6l2-14v-4l4-6v18l2 26v10l2 14v4l2 8v2l2 6v2l2 4 3-1 1-11v-6l2-16v-8l2-34v-16l-2-32v-6-4l22 97c7 32 2 64-8 95-5 17-15 28-32 32v-2l-2-4v-2l-2-4zM1774 348c19-22 40-42 66-57l50-25 6-4 62 8 4 1-4 1-29 7c-16 2-28 12-39 22l-51 56-3 3v-5l15-35 2-7c-3 1-5 1-7 3-18 11-33 25-46 42l-12 16c-3 5-5 4-7-1l-7-25z"/><path class="st0" d="M1547 2092l-1 79-1 5-3-4c-17-38-34-76-45-117-1-5 0-9 5-12l37-31 6-4 1 6 1 78z"/><path class="st11" d="M1576 1268v2c4 24 22 25 40 26 37 2 73 11 108 22l8 2-2 2-68-6c-31-2-61-1-92-2-4 0-8 0-11-2-19-14-34-32-47-52l-2-7 7 2 59 13z"/><path class="st10" d="M2206 1158l-15 17c-19 23-41 41-67 55-4-11 4-20 8-28l63-112 3-4 2 6 6 66zM1741 371l5-37c0-3 3-5 4-8 2 3 4 5 4 8v30c-4 20 1 38 4 58l1 5 4 15 1-17v-44l1-3 1 3c7 14 14 28 19 44 2 9 0 21-1 31-2 24-9 46-19 68l-4 6-2-8-5-45-11-83-1-23h-1z"/><path class="st0" d="M1842 1751v25l-19-14c-22-13-46-13-71-9l-9 2c-12 3-12 3-11-10 2-18 9-24 27-27 26-5 51 1 77 4 2 1 5 5 5 7l1 22z"/><path class="st10" d="M1642 338l4-12 6 12c6 19 4 39 2 59l-4 62c-2 28-3 55 4 82l7 24 1 4-4-2c-20-18-35-40-42-67l11 11 4 1-1-3c-10-33-10-66-2-99l4 4 8 41 1 5 1-6 4-73v-42l-4-1z"/><path class="st11" d="M1150 1384l-12 10-2 2-20 11-22 9v2c-8 20-17 39-33 54l-17 20-13 13c-3 2-7 2-11 3v-10c4-16 11-29 26-40 10-9 17-23 23-35 5-10 11-16 21-22 15-9 28-22 41-34 5-4 7-5 10 1l9 16zM2266 1288v2l-2 2-2-2c-25-44-39-92-44-142-3-33-4-66-6-100v-5c1-15 1-15 16-11v57a624 624 0 0036 197l2 2z"/><path class="st10" d="M1462 498l15 43 2 7-7-2c-16-4-19-20-24-32-16-40-27-82-34-124v-14l6 11c12 14 19 30 20 48 2 14 11 25 19 36 11 13 19 28 29 42l1 5-5-3-22-17h-1 1zM1982 320c-10 30-32 52-55 73l-10 9-78 77-5 4v-6c0-15 9-25 18-34 26-25 50-51 79-73 19-14 33-34 49-52l2 2z"/><path class="st11" d="M1636 286l-6 28-11 10-41 66-36-22c1-3 1-7 3-9l33-39 2 2-11 40v8l5-5 55-73 7-6z"/><path class="st10" d="M1297 1398l-1 8c-1 13-1 13-13 8-33-13-61-31-80-60l-10-18c-3-5-1-8 3-10 2 0 6 2 7 4 11 22 32 32 51 45 11 7 25 12 37 19l6 4z"/><path class="st12" d="M1852 768l-9-20-4-7-5 7-20 36-2-2 24-50c3-8 7-6 10 1l5 7 2-8 2-10c1-7 0-19 12-7l3-4-7-30c-12-30-8-88 29-109v2c-28 27-30 60-24 96l4 8c10 17 9 36 8 55-1 6-4 2-6 1-10-7-10-7-12 5l-6 27-4 2z"/><path class="st11" d="M1642 338l4 1v42l-4 73-1 6-1-5-8-41-2-6-2 2c-8 33-8 66 3 99v4l-4-2-11-11c-1-6-3-12-3-19a898 898 0 01-2-53l25-66c3-7 4-16 6-24z"/><path class="st10" d="M1578 390l41-66 11-10-20 75-8 19-15-12-9-6zM1754 566c17-21 31-44 38-70 1-5 2-10 1-14-5-23 3-42 16-60l4-4-1 5c-5 21-5 42-3 64 2 15-6 29-15 41-11 15-23 29-40 38zM1710 304l27-14 49-22h7l-2 6-19 35c-3 4-3 10-4 15l-6-32-1-4c-2 1-4 1-5 3-10 13-24 25-27 43l-4 6-4-7-11-29z"/><path class="st11" d="M1642 564l4 4-2 2c-29-12-51-32-62-61-4-12-3-26-2-38 3-20-1-39-6-58v-6l4 3 8 10c1 5 4 9 4 14l2 51c1 36 21 60 50 79z"/><path class="st10" d="M1452 706l25-38 7-5 2 8c0 38-1 77-12 114l-8 19c2-14 6-28 7-42 1-15-1-31-2-46 0-6-4-8-10-4l-6 3-8 1 1-8 1 4 3-6zM2102 1219l-2 4-33 36c-4 4-7 5-11-2-5-9-4-14 3-22 11-14 19-30 28-46l6-7 3 9 6 28zM1440 682l-25 40c-4 6-6 14-8 21l-2 3-1-4c0-38 12-73 34-103 6-8 13-14 20-21l-18 64z"/><path class="st11" d="M1626 1330c5 12 10 25 16 36 2 4 6 6 10 8l35 14 3 3-4 1h-12c-11-2-21-3-31-6-20-5-27-21-34-38-8-19-8-19 11-18h6z"/><path class="st13" d="M1698 1000c-16 1-32 1-47-7-3-2-7-6-8-9l-35-130 2-2c3 3 5 8 9 9 7 2 8 7 7 13-4 27 3 53 15 78l4 15c2 8 7 12 14 14l20 6c6 1 13 0 19-1v14z"/><path class="st10" d="M1438 1212l-5 5-59 68-5 5-10 3c1-3 0-8 2-10l49-65 14-13 9-6 5 13zM1590 852c-22 0-36 12-48 28l-5 6-1-8c0-21 10-36 22-51l14-17 18 42zM1608 918c-3 4-8 7-10 11l-17 43-2 4-1-4c-5-32-3-62 14-90l4-10 12 46z"/><path d="M2262 1020h24c13-2 22 3 30 13l30 39-2 2-27-19c-17-14-38-19-59-25l-10-4 10-5 4-1z" fill="#515252"/><path class="st10" d="M1642 564c-29-19-49-43-50-79l-2-51-4-14c11 10 16 23 18 38 1 9-3 19-1 28 2 13 6 26 12 37 8 14 18 28 27 41zM1094 1416l22-9 20-11-2 6c-4 11 2 21 4 31v11c-6 3-12 10-19 4l-17-18-6-10-2-4zM1604 962l14 66 3 32 5 24h-2l-2-2-6-10c-13-26-21-53-20-83l4-29 4 2z"/><path class="st11" d="M1752 1452l5 4 17 50c-18-1-31-13-40-26-13-17-12-18 8-25l10-3z"/><path d="M1983 376c-7 55-21 106-42 154-1 2-1 5-3 7l-8 6 1-8c18-46 34-93 42-142 0-5 4-11 7-16l4-4-1 3z" fill="#fbfbfb"/><path class="st12" d="M2574 1445c-9 3-13-1-14-9l-4-15c-8-15-4-28 2-42l3-4 2 3 20 62c3 12-8 1-9 5z"/><path class="st11" d="M1770 1346l1 13c2 16 10 28 24 36l11 7-2 2c-34-5-50-17-54-51-1-11-1-12 11-9l9 2z"/><path d="M1159 1374c-7-13-14-25-19-38-5-14-8-29-10-44-1-6 3-13 5-20 1-1 7-2 9-1 2 0 4 4 4 7-3 26-2 51 6 76l6 18-1 2z" fill="#fdfcfd"/><path class="st10" d="M1456 892c3-38 20-69 52-90l5-2-1 5c-12 32-18 64-16 97l-2-42 3-20v-4l-5 1c-18 8-26 24-32 42l-4 15v-2z"/><path class="st11" d="M1700 1402l2 7c3 17 12 29 29 34 2 0 3 2 5 3h-16l-17-3c-18-2-23-18-29-32l4-5 22-4zM2104 780l-2 8c-1 10 3 13 13 12l13-2 6 2-49 15c-5 2-10 1-14 1 0-6-1-16 2-19 9-7 19-12 29-17h2z"/><path d="M1542 368a43615 43615 0 0122 66l-2 2a2685 2685 0 01-37-39l17-29z" fill="#525152"/><path class="st13" d="M1804 1410c4 21 15 38 34 49 2 1 3 5 4 7l-24-6c-16-6-31-29-29-46 0-2 2-4 4-4h11z"/><path d="M1817 640c0 24-17 38-38 35-6-1-7-3-3-7l32-38 5-4 3 6 1 8z" fill="#fdfefe"/><path d="M1670 893l27-3c11-1 22 0 33 1 1 0 3 2 2 4l-3 9c-1 4-4 5-6 0-4-8-6-5-8 1l-3 3c-4 5-8 8-11-1l-2-5-2 4c-5 9-7 9-13 0-3-4-5-12-10-1l-3 2-6-15 4-2 1 3z" fill="#fcfcfc"/><path class="st10" d="M1044 1492l17-20c16-15 25-34 33-54l2 2 4 14 3 8 7 12-14 5c-8 3-17 5-24 10-7 4-13 11-20 16l-8 7zM1426 784l3-43c0-4 3-8 5-11l-2 13 1 5 4-2 16-16c4-4 6-3 8 3 2 7 1 13-5 19-11 10-20 21-30 32zM1724 879c-13-1-21-11-18-23 1-3 7-5 11-7l4 5 5 11 18-6 21-12h3l-2 2c-7 9-13 18-21 25-5 4-14 4-21 5z"/><path class="st13" d="M2324 1410l2 21 1 20c0 2-2 3-3 5l-25-2c-6 0-8-1-3-7l28-37z"/><path class="st20" d="M1530 982c-7-37 6-69 28-98l2 4-10 44h-4a57 57 0 00-14 39l-2 11z"/><path class="st21" d="M1662 1014l-5 53-1 3-2-2c-4-11-9-22-11-33-3-10-2-19-3-29l22 8z"/><path d="M1669 934c-7 0-16-11-15-20l3-15 7 11c3 3 4 14 12 4l3 1 4 6c9 14 9 14-3 26l-3 3-1-4v-6c0-5-1-8-7-6z" fill="#fbfbfc"/><path class="st23" d="M1648 822c-3-1-9-3-9-5-1-6 0-13 1-19 0-1 3-2 5-1l67 10-38 3c-6 0-12-2-17-3-4 0-7 2-10 3l5 10-4 2z"/><path class="st10" d="M1698 1000v-14c9 3 19 4 27-3 5-3 10-2 12 4 2 7 0 10-6 11l-33 2z"/><path d="M1876 2320c1 5-1 7-9 4-5-2-11-2-17-2l-5-2 3-4 21-18 4-2 1 4 2 20z" fill="#6a696a"/><path d="M1472 592l-34 6-4 1 2-4 20-25 5 10 7 3 8 1-4 8z" fill="#272627"/><path d="M2002 291c-2-8 1-10 10-8l16 1 4 1-2 3-13 11c-13 8-14 8-15-8z" fill="#f7f9f9"/><path d="M1504 940l6-34 2-10 2 6c0 22 0 44 6 66l-16-28z" fill="#282728"/><path class="st23" d="M2246 1002l16 6-28 10-8 2-13-5 11-5 22-8z"/><path class="st28" d="M1638 902l17 31c4 7-2 10-5 14l-4-3-10-34 2-8zM1762 911l-9 30c0 2-3 4-5 6-2-4-6-9-5-12 5-12 11-22 17-33l2 9z"/><path d="M1671 971s-3 3-5 3c-6 0-13-1-12-9 2-7 6-13 10-19l4-2 2 4 1 23z" fill="#f8f8f9"/><path d="M1727 971l1-23 2-4 4 2c4 6 8 12 10 19 1 7-6 9-12 9-2 0-4-2-5-3z" fill="#f7f8f8"/><path class="st20" d="M1548 802l-20 36-2-6 9-34 3-10 10 14z"/><path class="st28" d="M1679 974l7-20 3-3 2 4 5 17c0 3-1 7-3 8h-10c-2 0-3-4-4-6zM1720 977c-4 2-7 5-9 4-4-1-9-4-9-7l5-21h4l9 24z"/><path d="M1762 742c3-4 6-9 10-10 11-3 15-11 18-20l2-4 2 4c2 14-4 22-17 26l-13 6v-1l-1-1h-1z" fill="#f1f2f3"/><path d="M1728 826l16-11c5-3 5-7 2-11l-1-4c3 1 8 0 8 2 2 4 3 9 3 14l-4 4-22 8-2-2z" fill="#f0f2f2"/><path d="M1225 1653l7 5 14 12 4 3-5 1-25-13c-2-1-2-4-4-6l9-2z" fill="#ebedee"/><path d="M1904 985c0 15-3 18-13 13-1 0-2-3-1-4l7-8 6-8 1 7z" fill="#252425"/><path d="M1514 618l-10 2-10 3 5-10 7-11 8 16z" fill="#282828"/><path class="st36" d="M2352 912l-6-27c0-3 3-8 6-9 8-5 17-8 26-12v2l-17 8c-10 3-13 9-9 20l2 10-2 8z"/><path d="M1646 298l15-2-1 15v3l-14-16z" fill="#2a2728"/><path class="st38" d="M1174 1690l-2 4-16-24-1-5 6 3 13 22z"/><path d="M1312 1494c-2-3-4-6-4-9 0-1 4-4 6-4 2-1 6 3 5 3 0 4-2 7-4 10h-3z" fill="#232122"/><path class="st21" d="M1560 786l-12 14 4-16 3-8 5 7v3z"/><path d="M2352 1082l18 16-2 2-24-20 2-2h2l4 4z" fill="#1c0b14"/><path class="st36" d="M2166 748l15-13 2-1-1 3-14 13-2-2z"/><path class="st41" d="M1308 1224l20 16-2 4-18-20z"/><path d="M1670 728l-8-16v-2l10 14-2 4z" fill="#291b22"/><path d="M2288 1288l10 14-2 2-10-14 2-2z" fill="#1d0e15"/><path d="M1446 2448l-3 14-1-14h4z" fill="#372a31"/><path class="st36" d="M1254 1302l6-5 7-5-6 8-5 4-2-2z"/><path class="st45" d="M1208 1284l-4-16 1-2 2 2 3 12-2 4z"/><path d="M1701 946l-3 5-4-10 1-3 9 3-3 5z" fill="#dedcdd"/><path d="M1548 982l-2 12-2-20h2l2 8z" fill="#444243"/><path d="M1846 856l-2 10h-2v-14l4 4z" fill="#1c0f16"/><path d="M1542 538l6 12v2l-8-12 2-2z" fill="#24151d"/><path d="M1452 706l-3 6-1-4 2-10 2 8z" fill="#484646"/><path class="st51" d="M1382 1182l-8 12-2-2 10-10z"/><path class="st45" d="M1100 1434l-4-14 6 10-2 4z"/><path class="st52" d="M2264 1292l2-2 4 8-2 2-4-8z"/><path d="M2268 1300l2-2 6 12-8-10z" fill="#3c393b"/><path d="M810 1546l2 8v8l-4-6v-10h2z" fill="#44393e"/><path d="M1880 1282l10 2-10 2v-4z" fill="#343a3a"/><path d="M1610 852l-2 2-4-10 2-2 4 10z" fill="#444143"/><path class="st57" d="M1634 902l-2-7 2-3 2 4-2 6zM1762 896l2-4 2 3-2 7-2-6z"/><path d="M1634 902l2-6 2 6-2 9-2-9z" fill="#d6dbdd"/><path d="M1762 896l2 6-2 9-2-9 2-6z" fill="#d6dcde"/><path d="M1616 1072l6 10-8-8 2-2z" fill="#484849"/><path d="M1656 1112l-2 2-1-1-4-8 7 7z" fill="#211b1e"/><path d="M1134 1402l2-6 2-2-2 12-2-4z" fill="#1e0f16"/><path d="M808 1556l4 6-1 4-3-2v-8z" fill="#2c1b23"/><path d="M1736 712l-6 8-2-2 6-8 2 2z" fill="#1d0f16"/><path d="M1606 842l-2 2-4-8 2-2 4 8z" fill="#383135"/><path d="M2134 800l-6-2h12l-6 2z" fill="#3d4343"/><path d="M1838 270l-2 2-7 1 5-5 4 2z" fill="#291d24"/><path class="st38" d="M1186 1702l-8-8 8 8z"/><path d="M1812 782l2 2-2 8-2-4 2-6z" fill="#f5f2f3"/><path d="M2526 1280l-6-2 4-2 8 2-6 2z" fill="#64474f"/><path d="M1408 622l9-1-3 3-6-2z" fill="#2a121a"/><path d="M2460 1120l2 6-2 4-3-7 3-3z" fill="#524148"/><path class="st72" d="M1660 1126l4 6-6-4 2-2z"/><path d="M1648 822l4-2 4 4-8-2z" fill="#404345"/><path d="M1880 1282v4h-4l-4-4h8z" fill="#494e4e"/><path d="M950 2444l2 12h-2v-12z" fill="#40373c"/><path class="st76" d="M2348 1078h-2l-2-4 2-2 4 4-2 2z"/><path d="M1688 274l-5 5 3-7 2 2z" fill="#2a1f26"/><path d="M1982 320l-2-2 5-5-3 7z" fill="#20191d"/><path d="M1640 760l6 2-2 2-6-2 2-2z" fill="#29141c"/><path d="M1730 1322l2-2 8 4-10-2z" fill="#3a4141"/><path d="M2206 528l-4 2-6-2 2-2 8 2z" fill="#b5cccf"/><path d="M1810 788l2 4-2 6-2-3 2-7z" fill="#cac8ca"/><path d="M1754 568l-7 3 5-5 2 2z" fill="#1e1419"/><path d="M1808 795l2 3-2 6h-3l3-9z" fill="#bab7ba"/><path class="st85" d="M1770 1442l-6 4-2-2 8-2z"/><path d="M1164 1444l5-1-3 3-2-2z" fill="#232024"/><path d="M1804 1404l2-2 6 4-8-2z" fill="#404142"/><path d="M1805 804h3l-2 8-2-2 1-6z" fill="#978b90"/><path class="st10" d="M1714 366v4l-2-10 2 6z"/><path d="M1804 810l2 1-3 5 1-6z" fill="#483840"/><path d="M2198 526l-2 2-4-3 6 1z" fill="#5c7378"/><path class="st91" d="M1602 834l-2 2-2-6 2-2 2 6z"/><path d="M1892 574v-2l6-4-6 6z" fill="#b8c7ca"/><path d="M592 1596v4l-1 4-1-4v-4h2z" fill="#34262d"/><path d="M1852 768l4-2-1 5-3-3z" fill="#866c72"/><path d="M1706 242l-2-2 4-1-2 3z" fill="#2d282d"/><path class="st96" d="M2134 446l-2-8 2 8z"/><path d="M1670 338l4-2-1 4-3-2z" fill="#2b2124"/><path d="M1562 436l2-2 2 4-4-2z" fill="#3a3135"/><path d="M1760 746l2-4h1v1h1v1l-2 4-2-2z" fill="#cdcbcd"/><path d="M1580 322l-2-2 4-2-2 4z" fill="#2e282d"/><path d="M2480 1276v2l-4-3 4 1z" fill="#789fa2"/><path d="M2626 1468l2-2 1 5-3-3z" fill="#736067"/><path d="M1556 702l6 2-2 2-4-2v-2z" fill="#312127"/><path d="M1446 2448h-4l1-4 3 4z" fill="#2d2129"/><path d="M1164 1444l2 2-6-1 4-1z" fill="#3c4344"/><path d="M1020 1520l-3 2 1-4 2 2z" fill="#544048"/><path d="M1159 1374l1-2 2 4h-2l-1-2z" fill="#ecf7f8"/><path d="M1726 830l-4 2v-2l2-2 2 1v1z" fill="#efe5e6"/><path d="M1168 1386l-4-4h2l2 4z" fill="#a79196"/><path d="M2524 1428h2l-3 3 1-3z" fill="#9d9498"/><path d="M1714 838l-3 1 3-3v2z" fill="#8e656b"/><path d="M1644 570l2-2 2 2v2l-4-2z" fill="#494546"/><path d="M1648 572v-2l2 3-2-1z" fill="#2d2228"/><path d="M950 2456h2v6h-2v-6z" fill="#504b4e"/><path d="M1760 746l2 2-3 1 1-3z" fill="#5d464d"/><path d="M1624 1084h2-4 2z" fill="#393c3d"/><path d="M1546 974h-2l1-2 1 2z" fill="#312e32"/><path class="st96" d="M2132 436l-2-4h2v4z"/><path d="M1456 892v2l-2-2h2z" fill="#413b3c"/><path d="M1714 838v-2l2-2v2l-2 2z" fill="#b0989c"/><path d="M1722 830v2l-2 2v-2l2-2z" fill="#b2dddf"/><path d="M1726 827l2-1h1l-1 3-2 1-1-1 1-2z" fill="#d5f4f5"/><path d="M1902 566l2-1h1l-3 1z" fill="#495d63"/><path d="M1898 568l4-2-4 2z" fill="#71999e"/><path class="st10" d="M1694 584l2 4h-2v-4zM1466 804l-2 4 2-4z"/><path class="st38" d="M1172 1694l2 4-2-4z"/><path d="M592 1596h-2v-4h2v4z" fill="#483d42"/><path d="M1166 1382h-2l-1-2h2l1 2z" fill="#bcced0"/><path d="M1160 1376h2l2 2h-2l-2-2z" fill="#ddc4c7"/><path class="st11" d="M1468 556h-1 1z"/><path class="st10" d="M1754 568l-2-2h2v2z"/><path class="st38" d="M1174 1698l2 2-2-2zM1178 1694l-2-2 2 2zM1176 1692l-2-2 2 2z"/><path d="M1020 1520l-2-2 2 2z" fill="#8f878c"/><path d="M1624 1084h-2v-2l2 2z" fill="#424545"/><path d="M1716 836v-2h2l-2 2z" fill="#d2d5d6"/><path d="M1720 832v2h-2l2-2z" fill="#cdebec"/><path d="M1726 827v2l-2-1 2-1z" fill="#f1ffff"/><path d="M1728 829l1-3 1 2-2 1z" fill="#fefdfd"/><path class="st52" d="M2262 1290l2 2-2-2z"/><path d="M1162 1378h2l1 2h-2l-1-2z" fill="#e7e6e7"/><path d="M1168 1386h1v1l-1-1z" fill="#858187"/><path class="st10" d="M2104 780z"/><path class="st2" d="M1466 1741c0 34-1 69 1 103 1 30-27 57-49 63-15 4-22 1-29-13-9-22-12-45-13-68l2-147c0-9 3-19 5-28 5-21 19-33 41-36l23-2c13 0 19 6 19 19v109zM2455 2000v-321c1-13 4-27 7-40 3-9 10-15 20-18 14-3 27-9 41-14l6-2c25-6 35 1 35 27v652c0 18-10 32-19 46l-2 2c-21 9-42 20-66 20-18 0-22-4-22-21v-331zM1946 1140v-2l-2-2-12-55c-2-12 4-22 10-32 9-16 18-32 29-48 8-13 23-18 37-23 22-8 45-8 68-4l5 2-47 4c-19 3-35 11-50 22l-7 10-32 51-3 12 4 55 2 4v4l-2 2zM1754 1168c39 0 77-5 112-22 10-5 17-11 22-22 7-15 16-29 24-44l3-4 1 6c3 34 8 67 28 96v2c-21-17-28-42-34-67l-2-6-4 5c-3 4-6 8-7 13-10 21-29 28-49 35-31 10-62 11-94 10v-2z"/><path d="M1944 1180v-2l2 1 4 6-6-5z" fill="#1f1219"/><path class="st45" d="M1754 1168v2l-9-1 9-1z"/><path class="st136" d="M1946 1140l2-2 2 8-4-6zM1951 1147v2l-1-2v-1l1 1zM1948 1134l-2-4 2 4zM1944 1136l2 2-2-2z"/><path class="st72" d="M1664 1132h1l-1 1z"/><path class="st2" d="M2402 1274c-5-24-25-33-44-39-23-8-47-14-70-21-16-4-30-10-41-22l-2-4 4 1 47 13 55 19 19 10c18 8 31 20 34 41l-2 2z"/><path d="M2368 1100l2-2 1 1 10 13-13-12z" fill="#1f171c"/><path class="st72" d="M2402 1274l2-2 5 12-7-10z"/><path class="st138" d="M2288 1288l-2 2-6-12 8 10z"/><path d="M2348 1078l2-2 2 6-4-4z" fill="#3c383a"/><path class="st138" d="M2279 1277v-1h1v2l-1-1z"/><path class="st52" d="M2266 1288l-2-2 2 2z"/><path d="M2290 796l24 12c11 5 19 13 23 25l9 22c1 2-2 5-3 7l-6-4-2-5c-3-29-23-44-47-55l2-2z" fill="#1b0812"/><path class="st141" d="M2290 796l-2 2-14-10 16 8zM2274 788h-1 1z"/><path class="st2" d="M1654 610c12 15 18 33 18 52-4 15-17 21-29 21-16 1-25 9-34 20l-4 3-1-5c2-10-1-15-13-16-13-1-24-9-27-23v-5a69 69 0 009 3l-1-6c-1-10-2-21-1-32 2-7 1-12-4-16l-11-12 2-2c25 15 45 37 62 61l7 8c10 12 21 12 33 1 5-13-1-25-4-37l-4-13 2-2zm-41 65l8-2-5-10-30-34h-6c-6 22 4 47 33 46z"/><path d="M1698 722l24-23 3-3v4l-16 26c-6 7-13 8-20 1l-15-19-2-10h2l24 24z" fill="#1b0912"/><path d="M1652 750c-7-4-14-9-22-12-7-4-14-19-12-28l1-2 3 1c3 12 11 19 22 23 5 2 7 8 10 12l-2 6z" fill="#1c0913"/><path d="M1558 592l-2 2-8-8 10 6z" fill="#29181f"/><path d="M1652 750l2-6 2 6-1 4-3-4z" fill="#22151d"/><path d="M1552 558l2 6-4-4 2-2z" fill="#454345"/><path d="M1660 710l-4-4v-2l6 6h-2z" fill="#392e32"/><path d="M1552 558l-2 2-2-4 2-2 2 4z" fill="#383235"/><path d="M1556 702v2l-4-3 4 1z" fill="#372d31"/><path class="st91" d="M1656 704v2a521 521 0 010-2z"/><path d="M1644 764l2-2 4 4-6-2z" fill="#332026"/><path d="M1674 698h-2l-1-3 3 3z" fill="#302127"/><path d="M1550 554l-2 2v-4-2l2 4z" fill="#2d2026"/><path d="M1650 766l3 1h-1l-2-1z" fill="#302a2e"/><path d="M1548 586h-1 1z" fill="#39252a"/><path d="M1660 710h2v2l-2-2z" fill="#25181f"/><path d="M1514 902l-2-6 1-5 2-3 1 4-2 10z" fill="#303030"/><path d="M1560 888l-2-4 2-2 4-4-1 5-3 5z" fill="#323232"/><path d="M1604 962l-4-2 3-6 1 8z" fill="#333232"/><path d="M1526 832l2 6-3 6-1-7 2-5z" fill="#363737"/><path class="st141" d="M1382 1180l1-2 6-4-5 6h-2z"/><path class="st51" d="M1382 1180h2l-2 2v-2z"/><path class="st41" d="M1308 1224h-1 1z"/><path d="M1736 712l-2-2 8-7-6 9z" fill="#21181d"/><path class="st136" d="M1654 610l-2 2-4-8 6 6zM1648 604h-1 1z"/><path d="M2524 1276l-4 1-4-3 8 2z" fill="#bd898e"/><path d="M2460 1120l-3 3-1-9h2l2 6z" fill="#786d73"/><path d="M2458 1114h-2l1-2 1 2z" fill="#9f8b8f"/><path class="st85" d="M1771 1441h2l-1 1h-2l1-1z"/><path d="M2132 432h-2l-1-1 3 1z" fill="#e9d8d9"/><path class="st10" d="M1716 424l-2 34 2-34zM1714 376l2 32-2-32z"/><path class="st76" d="M1692 544v-2-2l2-8h2v6a187 187 0 002 12l-2 4v-2l-2-4-2-4z"/><path class="st10" d="M1698 406l-4 6 2-20h2v14zM1700 450l-2-26 2 26zM1690 472l2 24-2-24z"/><path d="M1682 522v6l-2-8 1-6 3 6-2 2z" fill="#353434"/><path class="st10" d="M1712 488v11l-4 1 4-12zM1692 436l-2 16 2-16zM1714 466l-2 16 2-16zM1694 416l-2 14 2-14zM1702 474l-2-14 2 14zM1692 502l2 14-2-14z"/><path d="M1698 392h-2l1-11 1 11z" fill="#313030"/><path class="st10" d="M1696 532h-2v-12l2 12zM1704 486l-2-8 2 8zM1684 542l2 8-2-8zM1682 530zM1686 528l-2-6 2 6zM1686 552l2 6-2-6zM1688 562l2 6-2-6zM1690 570l2 6-2-6zM1706 494l-2-6 2 6zM1708 500l-2-4 2 4zM1688 532l-2-4 2 4zM1690 538l-2-4 2 4zM1692 540v2l-2-4 2 2zM1692 578l2 4-2-4zM1682 522l2-2v2h-2zM1696 554l2-4 1 7-3-3zM1698 546l-2-8 2 8zM1692 544l2 4-2-4zM1694 548l2 4-2-4z"/><path d="M1628 410l2-2a506 506 0 00-2 2z" fill="#3f3d3d"/><path class="st45" d="M1096 1420l-2-2v-2l2 4z"/><path class="st2" d="M1462 498h-1 1z"/><path class="st12" d="M1613 675c-29 1-39-24-33-46h6l30 34 5 10-8 2z"/></svg>